<mxfile host="app.diagrams.net" modified="2022-11-22T16:29:03.546Z" agent="5.0 (Macintosh; Intel Mac OS X 10_15_7) AppleWebKit/537.36 (KHTML, like Gecko) Chrome/107.0.0.0 Safari/537.36" etag="0xJFRzv23tFAlF4VSTWz" version="20.5.3" type="github">
  <diagram id="C5RBs43oDa-KdzZeNtuy" name="Page-1">
    <mxGraphModel dx="2066" dy="1105" grid="1" gridSize="10" guides="1" tooltips="1" connect="1" arrows="1" fold="1" page="1" pageScale="1" pageWidth="1169" pageHeight="827" math="0" shadow="0">
      <root>
        <mxCell id="WIyWlLk6GJQsqaUBKTNV-0" />
        <mxCell id="WIyWlLk6GJQsqaUBKTNV-1" parent="WIyWlLk6GJQsqaUBKTNV-0" />
        <mxCell id="HxQtHJ9BHjU5pWGsX9P7-0" value="Metric Definition Change Request Submitted&lt;br&gt;&lt;b&gt;SIM Template&lt;/b&gt;" style="ellipse;whiteSpace=wrap;html=1;" vertex="1" parent="WIyWlLk6GJQsqaUBKTNV-1">
          <mxGeometry x="20" y="110" width="150" height="77" as="geometry" />
        </mxCell>
        <mxCell id="HxQtHJ9BHjU5pWGsX9P7-1" value="" style="endArrow=classic;html=1;rounded=0;" edge="1" parent="WIyWlLk6GJQsqaUBKTNV-1">
          <mxGeometry width="50" height="50" relative="1" as="geometry">
            <mxPoint x="94.5" y="187" as="sourcePoint" />
            <mxPoint x="134" y="303" as="targetPoint" />
            <Array as="points">
              <mxPoint x="94" y="303" />
            </Array>
          </mxGeometry>
        </mxCell>
        <mxCell id="HxQtHJ9BHjU5pWGsX9P7-2" value="Verify if request includes requirements and justification" style="rounded=0;whiteSpace=wrap;html=1;" vertex="1" parent="WIyWlLk6GJQsqaUBKTNV-1">
          <mxGeometry x="134" y="273" width="130" height="60" as="geometry" />
        </mxCell>
        <mxCell id="HxQtHJ9BHjU5pWGsX9P7-3" value="" style="endArrow=classic;html=1;rounded=0;exitX=0.5;exitY=0;exitDx=0;exitDy=0;entryX=0.987;entryY=0.429;entryDx=0;entryDy=0;entryPerimeter=0;dashed=1;" edge="1" parent="WIyWlLk6GJQsqaUBKTNV-1" source="HxQtHJ9BHjU5pWGsX9P7-2" target="HxQtHJ9BHjU5pWGsX9P7-0">
          <mxGeometry relative="1" as="geometry">
            <mxPoint x="204" y="253" as="sourcePoint" />
            <mxPoint x="199" y="143" as="targetPoint" />
            <Array as="points">
              <mxPoint x="199" y="143" />
            </Array>
          </mxGeometry>
        </mxCell>
        <mxCell id="HxQtHJ9BHjU5pWGsX9P7-4" value="Update SIM" style="edgeLabel;resizable=0;html=1;align=center;verticalAlign=middle;" connectable="0" vertex="1" parent="HxQtHJ9BHjU5pWGsX9P7-3">
          <mxGeometry relative="1" as="geometry" />
        </mxCell>
        <mxCell id="HxQtHJ9BHjU5pWGsX9P7-5" value="No" style="edgeLabel;resizable=0;html=1;align=left;verticalAlign=bottom;" connectable="0" vertex="1" parent="HxQtHJ9BHjU5pWGsX9P7-3">
          <mxGeometry x="-1" relative="1" as="geometry" />
        </mxCell>
        <mxCell id="HxQtHJ9BHjU5pWGsX9P7-7" value="" style="endArrow=classic;html=1;rounded=0;" edge="1" parent="WIyWlLk6GJQsqaUBKTNV-1">
          <mxGeometry width="50" height="50" relative="1" as="geometry">
            <mxPoint x="198.5" y="333" as="sourcePoint" />
            <mxPoint x="198.5" y="383" as="targetPoint" />
          </mxGeometry>
        </mxCell>
        <mxCell id="HxQtHJ9BHjU5pWGsX9P7-8" value="&lt;span style=&quot;color: rgb(0, 0, 0); font-family: Helvetica; font-size: 11px; font-style: normal; font-variant-ligatures: normal; font-variant-caps: normal; font-weight: 400; letter-spacing: normal; orphans: 2; text-align: left; text-indent: 0px; text-transform: none; widows: 2; word-spacing: 0px; -webkit-text-stroke-width: 0px; background-color: rgb(255, 255, 255); text-decoration-thickness: initial; text-decoration-style: initial; text-decoration-color: initial; float: none; display: inline !important;&quot;&gt;Yes&lt;/span&gt;" style="text;whiteSpace=wrap;html=1;" vertex="1" parent="WIyWlLk6GJQsqaUBKTNV-1">
          <mxGeometry x="204" y="329" width="30" height="20" as="geometry" />
        </mxCell>
        <mxCell id="HxQtHJ9BHjU5pWGsX9P7-13" value="" style="endArrow=classic;html=1;rounded=0;entryX=0;entryY=0.5;entryDx=0;entryDy=0;" edge="1" parent="WIyWlLk6GJQsqaUBKTNV-1" target="HxQtHJ9BHjU5pWGsX9P7-15">
          <mxGeometry width="50" height="50" relative="1" as="geometry">
            <mxPoint x="276.5" y="422.5" as="sourcePoint" />
            <mxPoint x="336.5" y="422.5" as="targetPoint" />
          </mxGeometry>
        </mxCell>
        <mxCell id="HxQtHJ9BHjU5pWGsX9P7-14" value="Provide visibility upon change request and open &lt;b&gt;sign-up period&lt;/b&gt;" style="ellipse;whiteSpace=wrap;html=1;" vertex="1" parent="WIyWlLk6GJQsqaUBKTNV-1">
          <mxGeometry x="121.5" y="383" width="155" height="80" as="geometry" />
        </mxCell>
        <mxCell id="HxQtHJ9BHjU5pWGsX9P7-15" value="Trigger the process and plan review" style="rounded=0;whiteSpace=wrap;html=1;" vertex="1" parent="WIyWlLk6GJQsqaUBKTNV-1">
          <mxGeometry x="334" y="393" width="110" height="60" as="geometry" />
        </mxCell>
        <mxCell id="HxQtHJ9BHjU5pWGsX9P7-17" value="" style="endArrow=classic;html=1;rounded=0;" edge="1" parent="WIyWlLk6GJQsqaUBKTNV-1">
          <mxGeometry width="50" height="50" relative="1" as="geometry">
            <mxPoint x="394" y="453" as="sourcePoint" />
            <mxPoint x="394" y="513" as="targetPoint" />
          </mxGeometry>
        </mxCell>
        <mxCell id="HxQtHJ9BHjU5pWGsX9P7-18" value="Business Stakeholder Review (signed-up)" style="ellipse;whiteSpace=wrap;html=1;" vertex="1" parent="WIyWlLk6GJQsqaUBKTNV-1">
          <mxGeometry x="324" y="513" width="140" height="70" as="geometry" />
        </mxCell>
        <mxCell id="HxQtHJ9BHjU5pWGsX9P7-19" value="" style="endArrow=classic;html=1;rounded=0;entryX=0.5;entryY=1;entryDx=0;entryDy=0;dashed=1;" edge="1" parent="WIyWlLk6GJQsqaUBKTNV-1" target="HxQtHJ9BHjU5pWGsX9P7-21">
          <mxGeometry relative="1" as="geometry">
            <mxPoint x="464" y="547.5" as="sourcePoint" />
            <mxPoint x="494" y="193" as="targetPoint" />
            <Array as="points">
              <mxPoint x="494" y="548" />
            </Array>
          </mxGeometry>
        </mxCell>
        <mxCell id="HxQtHJ9BHjU5pWGsX9P7-20" value="Not Approved" style="edgeLabel;resizable=0;html=1;align=center;verticalAlign=middle;" connectable="0" vertex="1" parent="HxQtHJ9BHjU5pWGsX9P7-19">
          <mxGeometry relative="1" as="geometry">
            <mxPoint y="-36" as="offset" />
          </mxGeometry>
        </mxCell>
        <mxCell id="HxQtHJ9BHjU5pWGsX9P7-21" value="END&lt;br&gt;&lt;b&gt;Update Via SIM&lt;/b&gt;" style="ellipse;whiteSpace=wrap;html=1;" vertex="1" parent="WIyWlLk6GJQsqaUBKTNV-1">
          <mxGeometry x="419" y="110" width="150" height="77" as="geometry" />
        </mxCell>
        <mxCell id="HxQtHJ9BHjU5pWGsX9P7-22" value="" style="endArrow=classic;html=1;rounded=0;exitX=0;exitY=0.5;exitDx=0;exitDy=0;entryX=0.5;entryY=0;entryDx=0;entryDy=0;" edge="1" parent="WIyWlLk6GJQsqaUBKTNV-1" source="HxQtHJ9BHjU5pWGsX9P7-18" target="HxQtHJ9BHjU5pWGsX9P7-24">
          <mxGeometry relative="1" as="geometry">
            <mxPoint x="304" y="549.5" as="sourcePoint" />
            <mxPoint x="304" y="633" as="targetPoint" />
            <Array as="points">
              <mxPoint x="124" y="548" />
              <mxPoint x="124" y="605" />
            </Array>
          </mxGeometry>
        </mxCell>
        <mxCell id="HxQtHJ9BHjU5pWGsX9P7-23" value="Approved" style="edgeLabel;resizable=0;html=1;align=center;verticalAlign=middle;" connectable="0" vertex="1" parent="HxQtHJ9BHjU5pWGsX9P7-22">
          <mxGeometry relative="1" as="geometry">
            <mxPoint x="33" as="offset" />
          </mxGeometry>
        </mxCell>
        <mxCell id="HxQtHJ9BHjU5pWGsX9P7-24" value="Review Meeting (definition, logic, attributes, test cases, data sources)" style="shape=process;whiteSpace=wrap;html=1;backgroundOutline=1;" vertex="1" parent="WIyWlLk6GJQsqaUBKTNV-1">
          <mxGeometry x="154" y="623" width="160" height="70" as="geometry" />
        </mxCell>
        <mxCell id="HxQtHJ9BHjU5pWGsX9P7-27" value="Change Impact Analysis /&lt;br&gt;Open Testing Phase" style="rounded=0;whiteSpace=wrap;html=1;" vertex="1" parent="WIyWlLk6GJQsqaUBKTNV-1">
          <mxGeometry x="374" y="623" width="145" height="70" as="geometry" />
        </mxCell>
        <mxCell id="HxQtHJ9BHjU5pWGsX9P7-28" value="" style="endArrow=classic;html=1;rounded=0;entryX=0;entryY=0.5;entryDx=0;entryDy=0;exitX=1;exitY=0.5;exitDx=0;exitDy=0;" edge="1" parent="WIyWlLk6GJQsqaUBKTNV-1" source="HxQtHJ9BHjU5pWGsX9P7-24" target="HxQtHJ9BHjU5pWGsX9P7-27">
          <mxGeometry width="50" height="50" relative="1" as="geometry">
            <mxPoint x="384" y="653" as="sourcePoint" />
            <mxPoint x="434" y="603" as="targetPoint" />
          </mxGeometry>
        </mxCell>
        <mxCell id="HxQtHJ9BHjU5pWGsX9P7-29" value="" style="endArrow=classic;html=1;rounded=0;entryX=0.013;entryY=0.489;entryDx=0;entryDy=0;entryPerimeter=0;" edge="1" parent="WIyWlLk6GJQsqaUBKTNV-1" target="HxQtHJ9BHjU5pWGsX9P7-30">
          <mxGeometry width="50" height="50" relative="1" as="geometry">
            <mxPoint x="519" y="657.5" as="sourcePoint" />
            <mxPoint x="584" y="657.5" as="targetPoint" />
          </mxGeometry>
        </mxCell>
        <mxCell id="HxQtHJ9BHjU5pWGsX9P7-30" value="Approved?" style="html=1;whiteSpace=wrap;aspect=fixed;shape=isoRectangle;" vertex="1" parent="WIyWlLk6GJQsqaUBKTNV-1">
          <mxGeometry x="594" y="618" width="133.33" height="80" as="geometry" />
        </mxCell>
        <mxCell id="HxQtHJ9BHjU5pWGsX9P7-32" value="" style="endArrow=classic;html=1;rounded=0;dashed=1;entryX=0.5;entryY=1;entryDx=0;entryDy=0;" edge="1" parent="WIyWlLk6GJQsqaUBKTNV-1" target="HxQtHJ9BHjU5pWGsX9P7-33">
          <mxGeometry width="50" height="50" relative="1" as="geometry">
            <mxPoint x="660.16" y="618" as="sourcePoint" />
            <mxPoint x="660.16" y="193" as="targetPoint" />
          </mxGeometry>
        </mxCell>
        <mxCell id="HxQtHJ9BHjU5pWGsX9P7-33" value="END&lt;br&gt;&lt;b&gt;Update Via SIM&lt;/b&gt;" style="ellipse;whiteSpace=wrap;html=1;" vertex="1" parent="WIyWlLk6GJQsqaUBKTNV-1">
          <mxGeometry x="585.66" y="110" width="150" height="77" as="geometry" />
        </mxCell>
        <mxCell id="HxQtHJ9BHjU5pWGsX9P7-34" value="No" style="edgeLabel;resizable=0;html=1;align=left;verticalAlign=bottom;" connectable="0" vertex="1" parent="WIyWlLk6GJQsqaUBKTNV-1">
          <mxGeometry x="660.6700000000001" y="618" as="geometry" />
        </mxCell>
        <mxCell id="HxQtHJ9BHjU5pWGsX9P7-35" value="&lt;span style=&quot;color: rgb(0, 0, 0); font-family: Helvetica; font-size: 11px; font-style: normal; font-variant-ligatures: normal; font-variant-caps: normal; font-weight: 400; letter-spacing: normal; orphans: 2; text-align: left; text-indent: 0px; text-transform: none; widows: 2; word-spacing: 0px; -webkit-text-stroke-width: 0px; background-color: rgb(255, 255, 255); text-decoration-thickness: initial; text-decoration-style: initial; text-decoration-color: initial; float: none; display: inline !important;&quot;&gt;Yes&lt;/span&gt;" style="text;whiteSpace=wrap;html=1;" vertex="1" parent="WIyWlLk6GJQsqaUBKTNV-1">
          <mxGeometry x="724" y="653" width="30" height="20" as="geometry" />
        </mxCell>
        <mxCell id="HxQtHJ9BHjU5pWGsX9P7-36" value="" style="endArrow=classic;html=1;rounded=0;entryX=0;entryY=0.5;entryDx=0;entryDy=0;" edge="1" parent="WIyWlLk6GJQsqaUBKTNV-1" target="HxQtHJ9BHjU5pWGsX9P7-37">
          <mxGeometry width="50" height="50" relative="1" as="geometry">
            <mxPoint x="724" y="657.5" as="sourcePoint" />
            <mxPoint x="794" y="658" as="targetPoint" />
          </mxGeometry>
        </mxCell>
        <mxCell id="HxQtHJ9BHjU5pWGsX9P7-37" value="Logic implementation and unification into data models&lt;br&gt;&lt;b&gt;Provide ETA&lt;/b&gt;" style="shape=hexagon;perimeter=hexagonPerimeter2;whiteSpace=wrap;html=1;fixedSize=1;" vertex="1" parent="WIyWlLk6GJQsqaUBKTNV-1">
          <mxGeometry x="794" y="618" width="170" height="80" as="geometry" />
        </mxCell>
        <mxCell id="HxQtHJ9BHjU5pWGsX9P7-38" value="Propagation, Documentation and Release to end users" style="shape=process;whiteSpace=wrap;html=1;backgroundOutline=1;" vertex="1" parent="WIyWlLk6GJQsqaUBKTNV-1">
          <mxGeometry x="794" y="393" width="160" height="70" as="geometry" />
        </mxCell>
        <mxCell id="HxQtHJ9BHjU5pWGsX9P7-39" value="" style="endArrow=classic;html=1;rounded=0;entryX=0.5;entryY=1;entryDx=0;entryDy=0;" edge="1" parent="WIyWlLk6GJQsqaUBKTNV-1" target="HxQtHJ9BHjU5pWGsX9P7-38">
          <mxGeometry width="50" height="50" relative="1" as="geometry">
            <mxPoint x="874" y="618" as="sourcePoint" />
            <mxPoint x="924" y="568" as="targetPoint" />
          </mxGeometry>
        </mxCell>
        <mxCell id="HxQtHJ9BHjU5pWGsX9P7-45" value="" style="edgeStyle=orthogonalEdgeStyle;rounded=0;orthogonalLoop=1;jettySize=auto;html=1;" edge="1" parent="WIyWlLk6GJQsqaUBKTNV-1" source="HxQtHJ9BHjU5pWGsX9P7-40" target="HxQtHJ9BHjU5pWGsX9P7-44">
          <mxGeometry relative="1" as="geometry" />
        </mxCell>
        <mxCell id="HxQtHJ9BHjU5pWGsX9P7-40" value="Move old metric in 60 backup retention period" style="rounded=0;whiteSpace=wrap;html=1;" vertex="1" parent="WIyWlLk6GJQsqaUBKTNV-1">
          <mxGeometry x="799" y="273" width="150" height="70" as="geometry" />
        </mxCell>
        <mxCell id="HxQtHJ9BHjU5pWGsX9P7-41" value="" style="endArrow=classic;html=1;rounded=0;entryX=0.5;entryY=1;entryDx=0;entryDy=0;exitX=0.5;exitY=0;exitDx=0;exitDy=0;" edge="1" parent="WIyWlLk6GJQsqaUBKTNV-1" source="HxQtHJ9BHjU5pWGsX9P7-38" target="HxQtHJ9BHjU5pWGsX9P7-40">
          <mxGeometry width="50" height="50" relative="1" as="geometry">
            <mxPoint x="874" y="383" as="sourcePoint" />
            <mxPoint x="924" y="333" as="targetPoint" />
          </mxGeometry>
        </mxCell>
        <mxCell id="HxQtHJ9BHjU5pWGsX9P7-42" value="" style="endArrow=classic;html=1;rounded=0;entryX=0.5;entryY=1;entryDx=0;entryDy=0;" edge="1" parent="WIyWlLk6GJQsqaUBKTNV-1" target="HxQtHJ9BHjU5pWGsX9P7-44">
          <mxGeometry width="50" height="50" relative="1" as="geometry">
            <mxPoint x="874" y="273" as="sourcePoint" />
            <mxPoint x="874" y="223" as="targetPoint" />
          </mxGeometry>
        </mxCell>
        <mxCell id="HxQtHJ9BHjU5pWGsX9P7-44" value="Disposal" style="rounded=0;whiteSpace=wrap;html=1;" vertex="1" parent="WIyWlLk6GJQsqaUBKTNV-1">
          <mxGeometry x="799" y="153" width="150" height="70" as="geometry" />
        </mxCell>
        <mxCell id="HxQtHJ9BHjU5pWGsX9P7-46" value="" style="endArrow=classic;html=1;rounded=0;entryX=0;entryY=0.5;entryDx=0;entryDy=0;exitX=1;exitY=0.5;exitDx=0;exitDy=0;" edge="1" parent="WIyWlLk6GJQsqaUBKTNV-1" source="HxQtHJ9BHjU5pWGsX9P7-38" target="HxQtHJ9BHjU5pWGsX9P7-47">
          <mxGeometry width="50" height="50" relative="1" as="geometry">
            <mxPoint x="954" y="433" as="sourcePoint" />
            <mxPoint x="1014" y="433" as="targetPoint" />
          </mxGeometry>
        </mxCell>
        <mxCell id="HxQtHJ9BHjU5pWGsX9P7-47" value="Notify of successful implementation and release of new metric" style="rounded=0;whiteSpace=wrap;html=1;" vertex="1" parent="WIyWlLk6GJQsqaUBKTNV-1">
          <mxGeometry x="1014" y="393" width="120" height="70" as="geometry" />
        </mxCell>
        <mxCell id="HxQtHJ9BHjU5pWGsX9P7-48" value="" style="endArrow=classic;html=1;rounded=0;entryX=0.5;entryY=1;entryDx=0;entryDy=0;" edge="1" parent="WIyWlLk6GJQsqaUBKTNV-1" target="HxQtHJ9BHjU5pWGsX9P7-49">
          <mxGeometry width="50" height="50" relative="1" as="geometry">
            <mxPoint x="1074" y="393" as="sourcePoint" />
            <mxPoint x="1074" y="203" as="targetPoint" />
          </mxGeometry>
        </mxCell>
        <mxCell id="HxQtHJ9BHjU5pWGsX9P7-49" value="END&lt;br&gt;&lt;b&gt;Update Via SIM&lt;/b&gt;" style="ellipse;whiteSpace=wrap;html=1;" vertex="1" parent="WIyWlLk6GJQsqaUBKTNV-1">
          <mxGeometry x="999" y="110" width="150" height="77" as="geometry" />
        </mxCell>
      </root>
    </mxGraphModel>
  </diagram>
</mxfile>
